<svg width="34" height="35" viewBox="0 0 34 35" fill="none" xmlns="http://www.w3.org/2000/svg">
<path d="M16.9107 0C7.54732 0 0.0566406 7.77778 0.0566406 17.5C0.0566406 27.2222 7.54732 35 16.9107 35C26.274 35 33.7647 27.2222 33.7647 17.5C33.7647 7.77778 26.274 0 16.9107 0ZM16.9107 13.6111C18.9706 13.6111 20.656 15.3611 20.656 17.5C20.656 19.6389 18.9706 21.3889 16.9107 21.3889C14.8507 21.3889 13.1653 19.6389 13.1653 17.5C13.1653 15.3611 14.8507 13.6111 16.9107 13.6111ZM22.1541 9.72222C22.1541 8.36111 23.2777 7.38889 24.4013 7.38889C25.5249 7.38889 26.6486 8.55555 26.6486 9.72222C26.6486 10.8889 25.7122 12.0556 24.4013 12.0556C23.0905 12.0556 22.1541 11.0833 22.1541 9.72222ZM16.9107 31.1111C9.60726 31.1111 3.80198 25.0833 3.80198 17.5H9.41999C9.41999 21.7778 12.7908 25.2778 16.9107 25.2778C21.0305 25.2778 24.4013 21.7778 24.4013 17.5H30.0194C30.0194 25.0833 24.2141 31.1111 16.9107 31.1111Z" fill="#841212"/>
</svg>
