<svg width="33" height="35" viewBox="0 0 33 35" fill="none" xmlns="http://www.w3.org/2000/svg">
<path d="M28.2077 5.68407C26.6927 4.14062 24.8881 2.91686 22.8991 2.08417C20.9102 1.25147 18.7768 0.826518 16.6233 0.834084C7.60035 0.834084 0.246463 8.25073 0.246463 17.3507C0.246463 20.2674 1.00664 23.1007 2.42784 25.6007L0.114258 34.1673L8.79019 31.8673C11.1864 33.184 13.8801 33.884 16.6233 33.884C25.6463 33.884 33.0002 26.4673 33.0002 17.3674C33.0002 12.9507 31.298 8.80073 28.2077 5.68407ZM16.6233 31.084C14.1775 31.084 11.7813 30.4173 9.68257 29.1673L9.1868 28.8673L4.03082 30.234L5.40244 25.1673L5.07193 24.6507C3.71311 22.4623 2.99159 19.9328 2.98971 17.3507C2.98971 9.78406 9.10417 3.61741 16.6068 3.61741C20.2424 3.61741 23.6632 5.05074 26.2247 7.65073C27.493 8.924 28.4981 10.4385 29.1818 12.1064C29.8654 13.7744 30.214 15.5626 30.2073 17.3674C30.2404 24.934 24.1259 31.084 16.6233 31.084ZM24.0929 20.8174C23.6797 20.6174 21.6636 19.6174 21.3001 19.4674C20.92 19.334 20.6556 19.2674 20.3746 19.6674C20.0937 20.084 19.317 21.0174 19.0856 21.284C18.8543 21.5674 18.6064 21.6007 18.1932 21.384C17.7801 21.184 16.4581 20.734 14.9047 19.334C13.6818 18.234 12.872 16.884 12.6241 16.4674C12.3928 16.0507 12.5911 15.834 12.8059 15.6174C12.9877 15.434 13.219 15.134 13.4173 14.9007C13.6157 14.6674 13.6983 14.484 13.8305 14.2174C13.9627 13.934 13.8966 13.7007 13.7974 13.5007C13.6983 13.3007 12.872 11.2674 12.5415 10.4341C12.211 9.63406 11.8639 9.73406 11.6161 9.71739H10.8228C10.5419 9.71739 10.1122 9.81739 9.73214 10.2341C9.36858 10.6507 8.31095 11.6507 8.31095 13.684C8.31095 15.7174 9.78172 17.684 9.98003 17.9507C10.1783 18.234 12.872 22.4007 16.9703 24.184C17.9454 24.6173 18.7055 24.8673 19.3005 25.0507C20.2755 25.3673 21.1678 25.3173 21.8784 25.2173C22.6717 25.1007 24.3077 24.2173 24.6382 23.2507C24.9853 22.284 24.9853 21.4674 24.8696 21.284C24.7539 21.1007 24.506 21.0174 24.0929 20.8174Z" fill="#841212"/>
</svg>
