<?xml version="1.0" encoding="utf-8"?>
<!-- Generator: Adobe Illustrator 26.0.3, SVG Export Plug-In . SVG Version: 6.00 Build 0)  -->
<svg version="1.1" id="Слой_1" xmlns="http://www.w3.org/2000/svg" xmlns:xlink="http://www.w3.org/1999/xlink" x="0px" y="0px"
	 viewBox="0 0 94 64.7" style="enable-background:new 0 0 94 64.7;" xml:space="preserve">
<style type="text/css">
	.st0{fill:#841212;}
	.st1{fill:none;stroke:#878686;}
</style>
<g id="Слой_2_00000029728161442501394550000014308524714776091304_">
	<g id="Слой_1-2">
		<path class="st0" d="M36.7,28.5v-9.1h-3.6v-2.1h9.8v2.1h-3.6v9.1H36.7z M49.3,19.8c0.6,0,1.2,0.1,1.8,0.4c0.5,0.3,1,0.7,1.3,1.2
			c0.3,0.7,0.5,1.4,0.5,2.1v4.9h-2.5v-4.5c0-0.5-0.1-1.1-0.5-1.5c-0.3-0.3-0.8-0.5-1.3-0.5c-0.4,0-0.8,0.1-1.1,0.3
			c-0.3,0.2-0.6,0.5-0.7,0.8c-0.2,0.4-0.3,0.8-0.3,1.3v4.3H44V16.7h2.5v5.6l-0.6-0.7c0.3-0.5,0.8-1,1.3-1.3
			C47.8,19.9,48.6,19.8,49.3,19.8z M59.5,28.6c-0.9,0-1.8-0.2-2.6-0.6c-2.2-1.2-2.9-4-1.7-6.2l0,0c0.4-0.7,0.9-1.2,1.6-1.6
			c0.7-0.4,1.6-0.6,2.4-0.6c0.8,0,1.6,0.2,2.3,0.5c0.6,0.4,1.2,0.9,1.6,1.5c0.4,0.7,0.6,1.6,0.6,2.4v0.6h-7v-1.5h5.7l-1,0.4
			c0-0.4-0.1-0.8-0.3-1.2c-0.2-0.3-0.5-0.6-0.8-0.8c-0.7-0.4-1.5-0.4-2.2,0c-0.3,0.2-0.6,0.5-0.8,0.8c-0.2,0.4-0.3,0.8-0.3,1.2v0.4
			c0,0.4,0.1,0.8,0.3,1.2c0.2,0.4,0.5,0.6,0.9,0.8c0.4,0.2,0.8,0.3,1.3,0.3c0.4,0,0.8-0.1,1.2-0.2s0.7-0.3,1-0.6l1.3,1.4
			c-0.4,0.4-0.9,0.8-1.5,1C61,28.4,60.3,28.7,59.5,28.6z M34.3,48.5V37.3h4.8c0.9,0,1.8,0.2,2.6,0.5c0.7,0.3,1.3,0.8,1.7,1.4
			c0.4,0.7,0.6,1.4,0.6,2.2s-0.2,1.5-0.6,2.2c-0.4,0.6-1,1.1-1.7,1.4c-0.8,0.3-1.7,0.5-2.6,0.5h-3.4l1.2-1.1v4.3h-2.6V48.5z
			 M41.4,48.5l-2.8-4.1h2.8l2.8,4.1H41.4z M36.9,44.5l-1.2-1.2H39c0.6,0,1.3-0.1,1.8-0.5c0.4-0.4,0.6-0.9,0.6-1.4s-0.2-1.1-0.6-1.4
			c-0.5-0.4-1.2-0.5-1.8-0.5h-3.3l1.2-1.2V44.5z M48.5,41.8h5.4v2h-5.4V41.8z M48.6,46.4h6.1v2.1H46V37.3h8.5v2.1h-5.9V46.4z
			 M56.8,48.5V37.3h5.1c1.1,0,2.2,0.2,3.2,0.7c0.9,0.4,1.6,1.1,2.2,1.9c0.5,0.9,0.8,1.9,0.8,3s-0.3,2.1-0.8,3s-1.3,1.6-2.2,2
			c-1,0.5-2.1,0.7-3.2,0.7h-5.1V48.5z M59.4,46.4h2.4c0.7,0,1.3-0.1,1.9-0.4c0.5-0.3,1-0.7,1.3-1.2c0.7-1.1,0.7-2.5,0-3.6
			c-0.3-0.5-0.8-0.9-1.3-1.2c-0.6-0.3-1.2-0.4-1.9-0.4h-2.4L59.4,46.4z"/>
		<path class="st1" d="M47.1,64.2c12.8,0,24.4-3.5,32.8-9.3s13.6-13.7,13.6-22.5S88.3,15.6,79.8,9.8S59.8,0.5,47,0.5
			S22.6,4,14.2,9.8S0.5,23.5,0.5,32.4S5.8,49.2,14.2,55S34.3,64.2,47.1,64.2z"/>
	</g>
</g>
</svg>
